<svg width="32" height="32" viewBox="0 0 32 32" fill="none" xmlns="http://www.w3.org/2000/svg">
<path d="M16 0.387695C13.8989 0.387695 11.8183 0.801548 9.87706 1.60562C7.93586 2.4097 6.17203 3.58825 4.68629 5.07399C1.68571 8.07457 0 12.1442 0 16.3877C0 23.4597 4.592 29.4597 10.944 31.5877C11.744 31.7157 12 31.2197 12 30.7877V28.0837C7.568 29.0437 6.624 25.9397 6.624 25.9397C5.888 24.0837 4.848 23.5877 4.848 23.5877C3.392 22.5957 4.96 22.6277 4.96 22.6277C6.56 22.7397 7.408 24.2757 7.408 24.2757C8.8 26.7077 11.152 25.9877 12.064 25.6037C12.208 24.5637 12.624 23.8597 13.072 23.4597C9.52 23.0597 5.792 21.6837 5.792 15.5877C5.792 13.8117 6.4 12.3877 7.44 11.2517C7.28 10.8517 6.72 9.1877 7.6 7.0277C7.6 7.0277 8.944 6.5957 12 8.6597C13.264 8.3077 14.64 8.1317 16 8.1317C17.36 8.1317 18.736 8.3077 20 8.6597C23.056 6.5957 24.4 7.0277 24.4 7.0277C25.28 9.1877 24.72 10.8517 24.56 11.2517C25.6 12.3877 26.208 13.8117 26.208 15.5877C26.208 21.6997 22.464 23.0437 18.896 23.4437C19.472 23.9397 20 24.9157 20 26.4037V30.7877C20 31.2197 20.256 31.7317 21.072 31.5877C27.424 29.4437 32 23.4597 32 16.3877C32 14.2865 31.5861 12.206 30.7821 10.2648C29.978 8.32355 28.7994 6.55972 27.3137 5.07399C25.828 3.58825 24.0641 2.4097 22.1229 1.60562C20.1817 0.801548 18.1012 0.387695 16 0.387695Z" fill="#232323"/>
</svg>
