<?xml version="1.0" encoding="UTF-8" standalone="no"?>
<svg
   width="691"
   height="460"
   viewBox="0 0 691 460"
   fill="none"
   version="1.1"
   id="svg1"
   sodipodi:docname="Hero Image.svg"
   inkscape:version="1.3.2 (091e20e, 2023-11-25, custom)"
   xmlns:inkscape="http://www.inkscape.org/namespaces/inkscape"
   xmlns:sodipodi="http://sodipodi.sourceforge.net/DTD/sodipodi-0.dtd"
   xmlns="http://www.w3.org/2000/svg"
   xmlns:svg="http://www.w3.org/2000/svg">
  <defs
     id="defs1" />
  <sodipodi:namedview
     id="namedview1"
     pagecolor="#ffffff"
     bordercolor="#000000"
     borderopacity="0.25"
     inkscape:showpageshadow="2"
     inkscape:pageopacity="0.0"
     inkscape:pagecheckerboard="0"
     inkscape:deskcolor="#d1d1d1"
     inkscape:zoom="0.90978261"
     inkscape:cx="192.35364"
     inkscape:cy="341.29032"
     inkscape:window-width="1920"
     inkscape:window-height="1051"
     inkscape:window-x="-9"
     inkscape:window-y="-9"
     inkscape:window-maximized="1"
     inkscape:current-layer="svg1" />
  <path
     d="M1 453.5C77.4 310.3 227.167 402.333 302.5 453.5M1 453.5L138.5 63.5C186 -38.4999 378.167 29.4999 417 46.4999M1 453.5C41 396.5 78.5 387.672 101.5 384C161 374.5 249.833 432 289 459L302.5 453.5M302.5 453.5C349.3 357.1 521 396 592 453.5M302.5 453.5L417 46.4999M302.5 453.5L314 459C334.4 419.8 388.167 410.333 412.5 410.5C473.3 410.5 542.833 439.167 570 453.5H592M592 453.5L690 46.5C623 -0.99992 513.5 -25.4999 417 46.4999"
     stroke="#232323"
     id="path1" />
  <path
     style="fill:#37b7c3;fill-opacity:1;stroke-width:1.20908"
     d="m 292.10275,445.63726 c -40.36174,-27.3228 -79.88422,-47.77239 -113.37988,-58.66461 -21.00473,-6.83038 -37.73943,-9.98981 -56.16612,-10.60388 -47.302476,-1.57635 -84.254468,18.11192 -112.056697,59.70457 -2.4500591,3.66533 -4.4546528,6.41829 -4.4546528,6.11769 0,-0.30061 30.0652228,-85.81979 66.8116088,-190.04263 C 118.49483,122.70698 140.353,61.412487 141.82813,58.740137 c 9.12531,-16.531489 23.18376,-29.203752 41.58365,-37.483424 40.70261,-18.3155532 105.91466,-15.3209357 184.391,8.467462 21.01046,6.368864 48.00208,16.426814 47.89797,17.848332 -0.11255,1.536784 -113.62886,404.458053 -113.93967,404.423983 -0.17349,-0.019 -4.51974,-2.88067 -9.65833,-6.35923 z"
     id="path2" />
  <path
     style="fill:#37b7c3;fill-opacity:0.69999999;stroke-width:1.20908"
     d="m 292.02766,445.20193 c -56.08261,-37.43901 -106.44774,-60.41521 -146.38847,-66.78134 -15.19511,-2.42194 -31.58249,-2.94194 -44.62663,-1.41608 -36.406566,4.2587 -65.507758,22.7183 -89.143231,56.54575 -2.2963508,3.28657 -4.1751832,5.7168 -4.1751832,5.4005 0,-0.66211 12.5719972,-36.61742 44.1401472,-126.23869 C 107.07473,155.88571 135.43233,76.011642 140.63077,62.60148 c 3.36938,-8.691819 11.67492,-19.527175 20.84249,-27.190977 16.70207,-13.962413 36.93808,-21.55181 66.10696,-24.793028 8.00459,-0.8894622 35.28438,-0.8862644 44.73758,0.0052 34.6127,3.264239 69.29642,10.747269 106.61888,23.003078 21.50009,7.060119 36.7608,13.182615 36.29885,14.562865 -0.13329,0.398267 -2.25499,8.019821 -4.71488,16.936786 -7.55081,27.371242 -70.32987,250.376306 -100.79683,358.052576 -4.10531,14.50896 -7.64734,26.81443 -7.87119,27.34549 -0.34882,0.82757 -1.75299,0.067 -9.82497,-5.32158 z"
     id="path3" />
  <path
     style="fill:#37b7c3;fill-opacity:0.69999999;stroke-width:1.20908"
     d="m 584.08864,446.61452 c -25.75169,-19.06633 -66.23669,-36.39618 -105.95244,-45.35358 -19.83117,-4.47267 -35.36239,-6.37768 -55.23297,-6.77467 -25.34609,-0.50639 -42.08998,1.67337 -61.00359,7.94158 -9.40457,3.11679 -22.80606,9.75558 -29.95221,14.83763 -6.61097,4.70146 -17.42066,15.47904 -21.70893,21.64447 -1.81337,2.60715 -3.61803,5.20393 -4.01034,5.7706 -0.54021,0.78031 -0.65038,0.8125 -0.45403,0.13264 0.1426,-0.49372 25.14683,-89.40232 55.56495,-197.57467 30.41812,-108.17234 55.55935,-197.484009 55.86941,-198.470365 1.52726,-4.858627 33.08477,-23.50033 53.17978,-31.414441 45.3918,-17.87686777 93.08035,-20.119618 141.89197,-6.673054 24.581,6.771544 50.13542,18.378271 70.5752,32.05501 3.32497,2.224816 6.0205,4.277507 5.99008,4.561535 -0.33914,3.165957 -97.3324,404.170785 -97.75008,404.133755 -0.31336,-0.0278 -3.46642,-2.19518 -7.0068,-4.81644 z"
     id="path4" />
  <path
     style="fill:#071952;fill-opacity:1;stroke-width:0.60454"
     d="M 282.07288,453.50356 C 234.38217,421.08834 191.01503,398.841 155.80645,388.72891 c -21.03654,-6.04181 -39.01989,-7.74621 -55.09558,-5.22179 -25.7915,4.05013 -45.654536,13.32006 -66.087214,30.84241 -6.574673,5.63821 -17.494174,17.11163 -23.894925,25.10705 -1.117939,1.39646 -2.0851904,2.48644 -2.149448,2.42218 -0.1940643,-0.19406 5.569685,-8.72162 8.802326,-13.02318 13.138111,-17.48242 28.136974,-30.38513 45.270721,-38.94395 23.692286,-11.835 50.71271,-15.14171 81.83363,-10.01465 37.93637,6.24989 80.81061,24.80735 131.40412,56.87627 7.18029,4.55126 24.6105,16.07678 24.81599,16.40928 0.12948,0.20949 -11.21829,5.08983 -11.65122,5.01086 -0.0617,-0.0113 -3.2036,-2.12168 -6.98197,-4.68983 z"
     id="path5" />
  <path
     style="fill:#071952;fill-opacity:1;stroke-width:1.20908"
     d="m 308.71718,455.52953 c -2.63913,-1.32614 -4.79842,-2.60668 -4.79842,-2.84564 0,-0.87884 6.03721,-10.61657 9.15355,-14.76424 26.8257,-35.70339 80.81602,-49.66081 148.30164,-38.3385 44.1296,7.40379 89.95026,25.57395 121.67309,48.24942 l 6.2609,4.47528 -9.67908,0.15001 -9.67907,0.15001 -6.4743,-3.24101 c -28.33381,-14.18379 -69.99801,-28.27017 -101.79616,-34.41657 -18.6163,-3.59843 -31.42628,-4.91269 -47.8442,-4.90867 -11.13394,0.003 -14.79666,0.21165 -21.15891,1.20689 -36.08993,5.64555 -63.33665,20.95906 -77.09032,43.32718 l -2.07029,3.36699 z"
     id="path6" />
  <path
     style="fill:#37b7c3;fill-opacity:0.7;stroke-width:1.20908"
     d="m 290.17921,443.99794 c -58.02424,-38.39408 -105.87868,-59.75045 -148.31886,-66.19138 -9.68282,-1.46952 -29.06407,-2.03214 -38.26945,-1.11093 -19.664686,1.96789 -38.205764,8.39653 -53.578953,18.57711 -14.040921,9.29832 -26.808215,22.12301 -38.124104,38.2955 -2.3065336,3.29646 -4.1936972,5.72669 -4.1936972,5.40051 0,-0.85032 25.4524242,-73.39793 77.9416032,-222.15871 28.278731,-80.14539 51.204681,-144.430821 54.995021,-154.20856 5.67438,-14.637919 21.44641,-30.405435 39.403,-39.391718 42.2125,-21.125036 114.91327,-17.2309729 199.72728,10.69797 21.46712,7.069044 36.09858,12.953782 35.58144,14.310775 -0.14552,0.381852 -2.29715,7.989976 -4.78139,16.906941 C 389.22398,141.7131 302.62886,448.70026 301.85291,450.50539 c -0.34515,0.80292 -2.12572,-0.18965 -11.6737,-6.50745 z"
     id="path11" />
</svg>
