<svg width="32" height="32" viewBox="0 0 32 32" fill="none" xmlns="http://www.w3.org/2000/svg">
<path d="M9.28 0H22.72C27.84 0 32 4.16 32 9.28V22.72C32 25.1812 31.0223 27.5416 29.282 29.282C27.5416 31.0223 25.1812 32 22.72 32H9.28C4.16 32 0 27.84 0 22.72V9.28C0 6.81879 0.977712 4.45839 2.71805 2.71805C4.45839 0.977712 6.81879 0 9.28 0ZM8.96 3.2C7.43235 3.2 5.96727 3.80686 4.88707 4.88707C3.80686 5.96727 3.2 7.43235 3.2 8.96V23.04C3.2 26.224 5.776 28.8 8.96 28.8H23.04C24.5676 28.8 26.0327 28.1931 27.1129 27.1129C28.1931 26.0327 28.8 24.5676 28.8 23.04V8.96C28.8 5.776 26.224 3.2 23.04 3.2H8.96ZM24.4 5.6C24.9304 5.6 25.4391 5.81071 25.8142 6.18579C26.1893 6.56086 26.4 7.06957 26.4 7.6C26.4 8.13043 26.1893 8.63914 25.8142 9.01421C25.4391 9.38929 24.9304 9.6 24.4 9.6C23.8696 9.6 23.3609 9.38929 22.9858 9.01421C22.6107 8.63914 22.4 8.13043 22.4 7.6C22.4 7.06957 22.6107 6.56086 22.9858 6.18579C23.3609 5.81071 23.8696 5.6 24.4 5.6ZM16 8C18.1217 8 20.1566 8.84285 21.6569 10.3431C23.1571 11.8434 24 13.8783 24 16C24 18.1217 23.1571 20.1566 21.6569 21.6569C20.1566 23.1571 18.1217 24 16 24C13.8783 24 11.8434 23.1571 10.3431 21.6569C8.84285 20.1566 8 18.1217 8 16C8 13.8783 8.84285 11.8434 10.3431 10.3431C11.8434 8.84285 13.8783 8 16 8ZM16 11.2C14.727 11.2 13.5061 11.7057 12.6059 12.6059C11.7057 13.5061 11.2 14.727 11.2 16C11.2 17.273 11.7057 18.4939 12.6059 19.3941C13.5061 20.2943 14.727 20.8 16 20.8C17.273 20.8 18.4939 20.2943 19.3941 19.3941C20.2943 18.4939 20.8 17.273 20.8 16C20.8 14.727 20.2943 13.5061 19.3941 12.6059C18.4939 11.7057 17.273 11.2 16 11.2Z" fill="#232323"/>
</svg>
