<svg width="65" height="43" viewBox="0 0 65 43" fill="none" xmlns="http://www.w3.org/2000/svg">
<g clip-path="url(#clip0_629_99)">
<mask id="mask0_629_99" style="mask-type:luminance" maskUnits="userSpaceOnUse" x="0" y="0" width="65" height="43">
<path d="M65 0.631592H0V42.3684H65V0.631592Z" fill="white"/>
</mask>
<g mask="url(#mask0_629_99)">
<path d="M27.166 3.84213V0.878571H0.124023V41.8745L13.645 28.415L27.166 41.8745V38.0466M27.166 3.84213V5.32391M27.166 3.84213H46.5172H64.8759V5.32391H62.6431M27.166 38.0466H64.8759V36.9353H62.6431M27.166 38.0466V36.9353M27.166 5.32391V11.0041M27.166 5.32391H28.5305M62.6431 5.32391C61.5267 6.18829 61.4026 10.2632 62.6431 11.0041M62.6431 5.32391H28.5305M62.6431 36.9353C62.2462 36.2438 62.4776 34.7538 62.6431 34.0952M62.6431 36.9353H28.5305M27.166 36.9353V34.0952M27.166 36.9353H28.5305M27.166 11.0041V12.3624M27.166 11.0041H27.8483H28.5305M28.5305 5.32391V11.0041M62.6431 11.0041H64.8759V12.3624H62.6431M62.6431 11.0041H28.5305M27.166 12.3624V15.9433M27.166 12.3624H28.5305M62.6431 12.3624C62.1469 13.3502 62.0229 15.079 62.6431 15.9433M62.6431 12.3624H28.5305M62.6431 15.9433H64.8759V17.1782H32.7481M62.6431 15.9433H28.5305M28.5305 12.3624V15.9433M27.166 15.9433V17.1782M27.166 15.9433H28.5305M27.166 17.1782H28.7786M27.166 17.1782V33.1073M32.7481 17.1782L38.8263 33.1073M32.7481 17.1782H31.7557M38.8263 33.1073H37.8339H35.7252H34.6088M38.8263 33.1073H64.8759V34.0952H62.6431M31.7557 17.1782H29.771M31.7557 17.1782L32.0038 17.9191M28.7786 17.1782L34.6088 33.1073M28.7786 17.1782H29.771M27.166 33.1073V34.0952M27.166 33.1073H34.6088M29.771 17.1782L30.1401 18.166M27.166 34.0952H28.5305M30.1401 18.166C30.9365 18.5612 31.7143 18.166 32.0038 17.9191M30.1401 18.166L35.2173 31.749H37.2137L32.0038 17.9191M62.6431 34.0952H28.5305M28.5305 36.9353V34.0952" stroke="black"/>
<path d="M0.250427 21.2631V1.00558H13.6251H26.9998V21.2382V41.4707L20.35 34.8514C16.6926 31.2106 13.6777 28.2318 13.6502 28.2318C13.6227 28.2318 10.5965 31.2217 6.92534 34.8763L0.250427 41.5206V21.2631Z" fill="#071952" stroke="#071952" stroke-width="0.444205"/>
<path d="M27.3449 4.58069V3.98126H46.047H64.7492V4.58069V5.1801H46.047H27.3449V4.58069Z" fill="#37B7C3" stroke="#37B7C3" stroke-width="0.628201"/>
<path d="M27.3449 11.7032V11.1743H46.047H64.7492V11.7032V12.2321H46.047H27.3449V11.7032Z" fill="#37B7C3" stroke="#37B7C3" stroke-width="0.628201"/>
<path d="M27.3449 16.569V16.1107H46.047H64.7492V16.569V17.0274H46.047H27.3449V16.569Z" fill="#37B7C3" stroke="#37B7C3" stroke-width="0.628201"/>
<path d="M34.7124 32.9367C34.7124 32.9211 33.4373 29.4249 31.8787 25.1671C30.3202 20.9094 29.045 17.3996 29.045 17.3676C29.045 17.3356 29.1805 17.3096 29.346 17.3097L29.6472 17.31L32.3737 24.6085L35.1005 31.9071H36.2605C37.3308 31.9071 37.4184 31.8975 37.3881 31.7836C37.3703 31.7157 36.173 28.5185 34.7278 24.6788C33.2824 20.839 32.0785 17.61 32.0524 17.5034C32.0063 17.3143 32.0127 17.3095 32.3136 17.3095L32.6225 17.3096L34.9566 23.4271C36.2402 26.7917 37.5841 30.3142 37.9428 31.2546L38.5953 32.9648H36.6538C35.586 32.9648 34.7124 32.9522 34.7124 32.9367Z" fill="#37B7C3" stroke="#37B7C3" stroke-width="0.628201"/>
<path d="M27.3449 33.5995V33.2469H46.047H64.7492V33.5995V33.9522H46.047H27.3449V33.5995Z" fill="#37B7C3" stroke="#37B7C3" stroke-width="0.628201"/>
<path d="M27.3449 37.5134V37.1254H46.047H64.7492V37.5134V37.9011H46.047H27.3449V37.5134Z" fill="#37B7C3" stroke="#37B7C3" stroke-width="0.628201"/>
<path d="M27.3449 8.14194V5.46219H27.8408H28.3365V8.14194V10.8217H27.8408H27.3449V8.14194Z" fill="#088395" stroke="#088395" stroke-width="0.628201"/>
<path d="M27.3449 14.1361V12.5141H27.8408H28.3365V14.1361V15.758H27.8408H27.3449V14.1361Z" fill="#088395" stroke="#088395" stroke-width="0.628201"/>
<path d="M27.3449 35.5036V34.2342H27.8408H28.3365V35.5036V36.7728H27.8408H27.3449V35.5036Z" fill="#088395" stroke="#088395" stroke-width="0.628201"/>
<path d="M62.1469 32.9838V32.1195H38.4542" stroke="black"/>
<path d="M36.9656 28.168H60.9065M60.9065 28.168H62.271V27.0567H36.5935M60.9065 28.168C60.0134 28.9583 59.9141 30.8846 60.9065 32.1195" stroke="black"/>
<path d="M38.5782 28.2915V32.1195" stroke="black"/>
</g>
<path d="M37.048 27.9898C37.0335 27.9665 36.9553 27.7757 36.8741 27.566L36.7266 27.1846H49.4207H62.1148V27.6085V28.0323H49.5946C42.7085 28.0323 37.0626 28.0132 37.048 27.9898Z" fill="#088395" stroke="#088395" stroke-width="0.444205"/>
<path d="M38.9219 32.9499C38.9219 32.9395 38.8657 32.7824 38.7971 32.6009L38.6723 32.2708H50.3434H62.0146V32.6199V32.9689H50.4682C44.1178 32.9689 38.9219 32.9604 38.9219 32.9499Z" fill="#088395" stroke="#088395" stroke-width="0.444205"/>
<path d="M34.7642 32.9467C34.6551 32.8873 34.2888 31.9189 31.9214 25.4315C30.4268 21.3357 29.1559 17.8418 29.0972 17.6674C28.9703 17.2898 28.9905 17.2634 29.4067 17.2623L29.6845 17.2615L32.4122 24.5712L35.1399 31.8809L36.2007 31.8634C36.7842 31.8538 37.2774 31.8302 37.2968 31.8108C37.3338 31.774 37.0802 31.087 34.069 23.0655C33.0487 20.3475 32.158 17.9583 32.0896 17.7562C31.9343 17.297 31.9608 17.2515 32.3722 17.2718L32.6693 17.2864L35.5707 24.8908C37.1664 29.0732 38.5166 32.613 38.571 32.757L38.67 33.0188L36.7798 33.0168C35.2792 33.0153 34.8636 33.0007 34.7642 32.9467Z" fill="#088395" stroke="#088395" stroke-width="0.444205"/>
<path d="M37.7944 29.9941C37.4568 29.1069 37.1735 28.3612 37.1647 28.3369C37.1524 28.3027 37.2922 28.2928 37.7902 28.2928H38.4315V29.9501C38.4315 30.8615 38.4263 31.6073 38.4198 31.6073C38.4134 31.6073 38.132 30.8814 37.7944 29.9941Z" fill="#37B7C3" stroke="#37B7C3" stroke-width="0.314101"/>
</g>
<defs>
<clipPath id="clip0_629_99">
<rect width="65" height="41.7368" fill="white" transform="translate(0 0.631592)"/>
</clipPath>
</defs>
</svg>
