<svg width="131" height="181" viewBox="0 0 131 181" fill="none" xmlns="http://www.w3.org/2000/svg">
<g clip-path="url(#clip0_769_1130)">
<path d="M65.5 52.5V143.5V160M65.5 52.5L95.5 2V124.5L65.5 160M65.5 52.5L38 34.5652M65.5 160L8 143.5M65.5 160L106.5 180.5M65.5 160L106.5 143.5M38 34.5652V50.5L33.5 44.5L27.9333 50.5V28M38 34.5652L36.75 33.75L27.9333 28M8 15V143.5M8 15H1V143.5M8 15L27.9333 28M8 143.5H1M1 143.5L62 162L98.5 180.5H106.5M106.5 180.5V143.5M106.5 143.5L130 135.5V34.5652L95.5 52.5" stroke="#232323"/>
<path d="M80.4168 170.627L62.3324 161.451L33.9438 152.844C8.61028 145.164 5.67855 144.231 6.7006 144.171C7.67402 144.115 12.1657 145.344 36.6305 152.362L65.4152 160.619L84.5532 170.203L103.691 179.787L101.096 179.795L98.5012 179.803L80.4168 170.627Z" fill="#071952" fill-opacity="0.309804"/>
<path d="M80.4444 170.508C68.7759 164.573 62.0054 161.248 60.8739 160.9C59.9224 160.607 50.9211 157.875 40.8709 154.829C21.382 148.922 8.45066 144.947 7.56866 144.591C7.26765 144.47 7.17736 144.367 7.36494 144.36C7.9726 144.335 15.4727 146.419 40.4023 153.539L64.9826 160.56L82.8925 169.482C92.743 174.39 101.258 178.671 101.814 178.996L102.826 179.587L100.556 179.585L98.2849 179.583L80.4444 170.508Z" fill="#071952"/>
<path d="M83.9044 172.138C76.114 168.165 67.7939 163.995 65.4151 162.871L61.0902 160.827L38.2759 153.891C14.036 146.521 11.4007 145.7 11.8603 145.665C12.2138 145.639 9.34769 144.834 39.5486 153.437L64.7168 160.606L79.879 168.123C88.2182 172.258 96.6468 176.48 98.6093 177.506L102.177 179.37L100.123 179.366L98.0686 179.362L83.9044 172.138Z" fill="#071952" stroke="black" stroke-width="0.475747"/>
<path d="M1.51379 79.2551V15.5158H4.48721H7.46063V79.2551V142.994H4.48721H1.51379V79.2551Z" fill="#071952"/>
<path d="M1.51379 79.2551V15.5158H4.48721H7.46063V79.2551V142.994H4.48721H1.51379V79.2551Z" fill="#37B7C3"/>
<path d="M28.4445 39.1069C28.4428 33.6193 28.4727 29.1295 28.511 29.1295C28.6147 29.1295 37.0497 34.6329 37.2736 34.8467C37.4242 34.9905 37.4577 36.5258 37.4265 41.8712L37.3867 48.7117L35.4973 46.1839C34.4581 44.7936 33.5636 43.6615 33.5095 43.6682C33.4553 43.6749 32.7573 44.3939 31.9584 45.266C31.1594 46.138 30.0427 47.3539 29.4767 47.9679L28.4476 49.0844L28.4445 39.1069Z" fill="#FFD700"/>
<path d="M86.3459 169.689L67.0544 160.024L73.9116 157.282C77.683 155.775 86.4372 152.257 93.3652 149.466L105.962 144.391V161.885C105.962 171.506 105.889 179.373 105.8 179.366C105.71 179.359 96.9562 175.005 86.3459 169.689Z" fill="white"/>
<path d="M66.172 105.413V52.6091L80.3702 28.6833C88.1793 15.5241 94.6505 4.66502 94.7508 4.55203C94.851 4.43904 94.933 31.3135 94.933 64.2731V124.2L92.4875 127.082C91.1425 128.668 84.6712 136.322 78.107 144.091L66.172 158.217V105.413Z" fill="#088395"/>
<path d="M37.1947 151.258C22.3871 146.996 9.90685 143.402 9.46083 143.27L8.6499 143.031V79.6789C8.6499 44.8352 8.70232 16.3268 8.7664 16.3268C8.83047 16.3268 13.0149 19.0195 18.0651 22.3107L27.2473 28.2947V40.0431C27.2473 46.6608 27.3304 51.7915 27.4375 51.7915C27.5422 51.7915 28.9262 50.3805 30.5132 48.6559C32.1003 46.9313 33.415 45.5203 33.4349 45.5203C33.4548 45.5203 34.5628 46.98 35.8972 48.764C37.2316 50.5481 38.4088 52.0078 38.5133 52.0078C38.618 52.0078 38.7287 48.3805 38.7599 43.9255L38.8166 35.8432L51.7915 44.3084L64.7664 52.7737L64.8209 105.912C64.8727 156.427 64.8567 159.05 64.4965 159.028C64.2881 159.016 52.0023 155.519 37.1947 151.258Z" fill="#088395"/>
<path d="M68.7815 157.09C69.4436 156.325 75.8419 148.766 82.9998 140.292L96.0143 124.886V88.914V52.9424L112.516 44.3657C121.592 39.6486 129.085 35.7891 129.168 35.7891C129.25 35.7891 129.293 58.1354 129.263 85.4476L129.209 135.106L117.639 139.05C107.393 142.543 103.906 143.866 87.1482 150.615C76.7412 154.806 68.0805 158.291 67.9021 158.359C67.7237 158.426 68.1194 157.855 68.7815 157.09Z" fill="#088395"/>
<path d="M86.3475 169.689L67.0576 160.024L73.9132 157.28C77.6838 155.771 86.4373 152.253 93.3653 149.462L105.962 144.388V161.883C105.962 171.505 105.889 179.373 105.8 179.366C105.71 179.359 96.957 175.005 86.3475 169.689Z" fill="#088395"/>
<path d="M42.1684 152.557C30.2153 149.118 17.7841 145.548 14.5436 144.622L8.65176 142.94L8.65088 123.694C8.6504 113.109 8.71474 84.6802 8.79386 60.5195L8.93771 16.591L9.9291 17.2049C10.4744 17.5426 14.5697 20.1915 19.0298 23.0914L27.1391 28.3639L27.1951 40.0777C27.2274 46.848 27.3333 51.7915 27.4459 51.7915C27.5531 51.7915 28.9468 50.4307 30.5429 48.7674L33.445 45.7432L35.8064 48.8087C37.1052 50.4947 38.274 51.9072 38.4038 51.9475C38.6772 52.0326 38.9247 46.4454 38.9247 40.1876C38.9247 38.0063 38.9977 36.2268 39.0869 36.2331C39.1761 36.2394 44.9418 39.9651 51.8996 44.5125L64.5501 52.7804L64.6092 105.321C64.6417 134.218 64.6155 158.08 64.551 158.348C64.4865 158.616 64.314 158.829 64.1676 158.822C64.0212 158.815 54.1215 155.996 42.1684 152.557Z" fill="#37B7C3"/>
<path d="M66.172 105.444V52.8471L77.8815 33.1273C84.3217 22.2813 90.72 11.5123 92.0998 9.19611L94.6087 4.98482L94.7394 37.2003C94.8114 54.9188 94.8843 81.6988 94.9016 96.7114L94.933 124.007L80.6288 140.934C72.7615 150.244 66.2903 157.902 66.2483 157.952C66.2063 158.001 66.172 134.373 66.172 105.444Z" fill="#37B7C3"/>
<path d="M68.5783 157.594C68.7416 157.388 74.9812 149.992 82.4441 141.159L96.013 125.1L96.0677 89.0645L96.1224 53.0295L105.854 47.9659C111.206 45.181 118.626 41.3431 122.343 39.4373L129.1 35.9721V85.483V134.994L126.559 135.881C125.162 136.369 120.856 137.85 116.99 139.172C107.406 142.45 103.857 143.803 84.9279 151.397C75.9164 155.012 68.4845 157.97 68.4125 157.97C68.3405 157.97 68.4151 157.801 68.5783 157.594Z" fill="#37B7C3"/>
<path d="M1.51379 79.2551V15.678H4.43315H7.3525V79.2551V142.832H4.43315H1.51379V79.2551Z" fill="#088395"/>
<path d="M69.9431 156.252C70.473 155.592 76.5546 148.377 83.4577 140.219L96.0087 125.387L96.0625 119.729C96.0921 116.617 96.1997 100.334 96.3015 83.5427L96.4867 53.0139L103.826 49.1953C107.863 47.095 115.192 43.3101 120.111 40.7845L129.057 36.1924V85.5332V134.874L122.099 137.269C108.959 141.792 105.62 143.043 87.9237 150.072C78.168 153.948 69.9146 157.193 69.5828 157.285C69.0829 157.424 69.1445 157.247 69.9431 156.252Z" fill="#37B7C3"/>
<path d="M86.4118 169.531L67.468 160.037L86.4118 152.428C96.8309 148.243 105.459 144.816 105.585 144.813C105.711 144.81 105.814 152.513 105.814 161.933C105.814 171.352 105.711 179.051 105.585 179.042C105.459 179.033 96.8309 174.753 86.4118 169.531Z" fill="#EBEBEB"/>
<path d="M60.874 157.815C59.4468 157.398 47.1547 153.866 33.5584 149.966C19.9621 146.066 8.80103 142.839 8.75604 142.794C8.62316 142.661 9.02791 17.1742 9.16165 17.0405C9.27729 16.9249 12.284 18.8248 22.4899 25.4627L26.923 28.346L27.0555 37.9603C27.1285 43.2482 27.2014 48.5235 27.2177 49.6831C27.2386 51.1703 27.3243 51.7915 27.5086 51.7915C27.6523 51.7915 29.0394 50.4726 30.5911 48.8605L33.4124 45.9295L35.7901 48.9146C37.0979 50.5564 38.2652 51.8996 38.3842 51.8996C38.7014 51.8996 38.868 49.6565 38.9224 44.6553C38.9489 42.2171 39.0333 39.3698 39.1099 38.328L39.2491 36.4338L45.4122 40.4257C48.8019 42.6212 54.446 46.2983 57.9546 48.5971L64.334 52.7766L64.3885 105.697L64.443 158.618L63.956 158.596C63.6881 158.583 62.3012 158.232 60.874 157.815Z" fill="#EBEBEB"/>
<path d="M66.316 129.31C66.2368 113.753 66.172 90.2328 66.172 77.0431V53.0617L80.2822 29.3059L94.3924 5.55016L94.5238 19.7506C94.596 27.5608 94.6828 54.218 94.7166 78.9889L94.7781 124.027L80.8535 140.497C73.1949 149.556 66.8234 157.109 66.6945 157.281C66.5255 157.507 66.4199 149.704 66.316 129.31Z" fill="#EBEBEB"/>
<path d="M68.7671 157.644C68.7671 157.554 78.5978 145.86 91.193 130.969L96.0144 125.269L96.0414 118.805C96.0563 115.25 96.0928 112.244 96.1225 112.125C96.1523 112.006 96.1887 98.6829 96.2036 82.5181L96.2306 53.1276L98.2309 52.0615C101.643 50.2431 128.322 36.4675 128.722 36.3171C129.083 36.1819 129.099 38.5805 129.047 85.557L128.992 134.939L124.127 136.61C113.407 140.292 107.076 142.568 101.096 144.891C95.963 146.886 71.0012 156.8 69.2537 157.538C68.9861 157.651 68.7671 157.699 68.7671 157.644Z" fill="#EBEBEB"/>
<path d="M66.7174 156.507C66.6362 156.301 66.4779 132.998 66.3658 104.725L66.1619 53.318L80.1691 29.7356L94.1763 6.15321L94.3089 13.024C94.3818 16.803 94.5084 43.2984 94.5903 71.9026L94.7391 123.91L82.564 138.308C75.8677 146.226 69.5961 153.645 68.627 154.794C67.2258 156.455 66.8348 156.806 66.7174 156.507Z" fill="#F0F0F0"/>
<path d="M62.4959 158.15C62.0796 158.032 50.4022 154.673 36.546 150.684C22.6899 146.695 10.7789 143.272 10.0771 143.078L8.80115 142.724L8.97013 84.5532C9.06307 52.5592 9.19936 24.3181 9.27298 21.7952L9.40685 17.208L13.6237 19.8891C15.943 21.3637 19.8354 23.8696 22.2736 25.4577L26.7067 28.3453L26.8396 32.6619C26.9127 35.036 26.9857 39.8599 27.0018 43.3817C27.0323 50.0549 27.1443 51.7915 27.5442 51.7915C27.6751 51.7915 29.0522 50.5241 30.6045 48.975L33.4269 46.1585L35.3079 48.4993C37.6523 51.4166 38.3844 52.1411 38.6134 51.7705C38.7061 51.6205 38.8955 48.2063 39.0343 44.1834C39.173 40.1605 39.3268 36.831 39.376 36.7846C39.4587 36.7066 47.4027 41.8262 59.3062 49.6288L64.2259 52.8536L64.2266 102.546C64.2271 129.877 64.2909 153.626 64.3684 155.321L64.5094 158.402L63.8811 158.383C63.5355 158.372 62.9121 158.267 62.4959 158.15Z" fill="#F0F0F0"/>
<path d="M66.8042 155.339C66.7951 154.704 66.7585 154.038 66.7228 153.858C66.6871 153.679 66.5968 139.52 66.5219 122.394C66.4471 105.269 66.3272 82.7798 66.2554 72.419C66.1525 57.5734 66.182 53.4718 66.3949 53.0648C66.5434 52.7808 68.6317 49.2398 71.0356 45.1959C73.4395 41.1521 76.7006 35.654 78.2825 32.9779C79.8643 30.3018 81.7137 27.1878 82.3922 26.0579C83.5372 24.1513 91.7797 10.2812 93.278 7.73995C93.6432 7.12051 93.96 6.63395 93.9819 6.6587C94.2687 6.98257 94.3814 22.0267 94.6116 90.7162L94.7229 123.91L87.0268 132.993C82.7939 137.988 78.1799 143.438 76.7734 145.103C69.5177 153.693 67.227 156.354 67.0335 156.42C66.9129 156.461 66.8136 155.992 66.8042 155.339Z" fill="#F0F0F0"/>
<path d="M70.0775 156.223C76.3982 148.707 86.1587 137.123 90.5182 131.963C95.5316 126.03 95.9669 125.449 96.0934 124.526C96.1688 123.976 96.2306 107.738 96.2306 88.4419C96.2306 60.6335 96.2866 53.3137 96.5009 53.1437C96.7413 52.953 106.087 48.0937 122.937 39.398C126.03 37.8022 128.633 36.5614 128.722 36.6407C128.812 36.72 128.861 58.8554 128.831 85.8305L128.776 134.876L120.234 137.848C106.44 142.648 104.617 143.338 83.7963 151.637C76.1844 154.671 69.7618 157.208 69.5239 157.275C69.2052 157.363 69.3507 157.087 70.0775 156.223Z" fill="#F0F0F0"/>
<path d="M86.4215 169.407C76.2096 164.292 67.8927 160.069 67.9397 160.022C68.1775 159.785 105.383 144.992 105.485 145.095C105.551 145.161 105.65 150.639 105.704 157.269C105.813 170.583 105.635 178.737 105.235 178.717C105.1 178.71 96.6335 174.521 86.4215 169.407Z" fill="#F0F0F0"/>
<path d="M1.52905 79.2078V15.7498H4.43436H7.33966V79.2078V142.666H4.43436H1.52905V79.2078Z" fill="#010510"/>
<path d="M61.0114 157.652C60.0022 157.347 54.3598 155.716 48.4727 154.028C15.561 144.588 10.7671 143.21 9.83099 142.918L8.8053 142.597L9.02419 84.449C9.14458 52.4674 9.28272 25.2685 9.33116 24.007C9.3796 22.7455 9.43302 20.7225 9.44986 19.5114L9.48048 17.3095L17.9972 22.7972L26.514 28.2849L26.7116 31.2684C26.8202 32.9094 26.9111 37.4861 26.9134 41.4388C26.9177 48.6739 27.1069 51.8368 27.5354 51.8368C27.6631 51.8368 29.0419 50.5757 30.5995 49.0343L33.4314 46.2319L34.0132 46.97C36.3261 49.9044 38.0575 51.8368 38.3737 51.8368C38.7567 51.8368 39.1409 47.32 39.1438 42.7834C39.1445 41.5886 39.2323 39.7778 39.3387 38.7593L39.5323 36.9076L41.7088 38.2878C42.906 39.0469 48.4606 42.6468 54.0524 46.2876L64.2195 52.9071L64.221 105.585L64.2225 158.263L63.5344 158.234C63.1559 158.218 62.0206 157.956 61.0114 157.652Z" fill="#F3F3F3"/>
<path d="M66.5974 143.508C66.5935 140.757 66.5739 137.802 66.5539 136.939C66.5339 136.077 66.4879 127.319 66.4517 117.477C66.4155 107.635 66.3626 96.3225 66.3341 92.3381C66.3056 88.3537 66.2515 77.9568 66.2139 69.2339L66.1454 53.374L67.7465 50.6906C68.6271 49.2147 69.4005 47.9099 69.4651 47.7909C69.5296 47.672 70.2332 46.4799 71.0285 45.1419C72.1947 43.1799 75.796 37.1145 76.724 35.5492C76.8375 35.3578 77.244 34.6766 77.6274 34.0354C78.896 31.9139 80.1757 29.7616 81.4705 27.5717C82.1736 26.3823 83.2827 24.5149 83.9351 23.4219C84.5874 22.3288 85.1764 21.3314 85.244 21.2053C85.3115 21.0792 85.9056 20.076 86.564 18.9758C87.2225 17.8756 88.6278 15.5158 89.687 13.7318C90.7461 11.9477 91.8888 10.0258 92.2262 9.46087C92.5636 8.89592 93.1233 7.95839 93.4699 7.37747C93.8165 6.79654 94.1123 6.33431 94.1273 6.35029C94.1557 6.38052 94.2462 11.5459 94.3371 18.3271C94.3663 20.4977 94.4153 29.645 94.446 38.6544C94.4768 47.6639 94.5257 60.1684 94.5547 66.4423C94.5838 72.7163 94.6383 88.2132 94.6759 100.88L94.7443 123.91L91.8549 127.316C90.2657 129.19 88.2311 131.598 87.3334 132.668C85.7988 134.498 84.4192 136.126 82.6609 138.181C82.2447 138.668 81.8056 139.183 81.6853 139.327C81.565 139.471 80.663 140.537 79.6809 141.697C77.5236 144.244 76.9104 144.971 75.232 146.968L73.9373 148.509H70.2709H66.6045L66.5974 143.508Z" fill="#F3F3F3"/>
<path d="M76.7811 148.319C76.9564 148.095 78.2706 146.531 86.9927 136.172C94.2396 127.565 95.3475 126.218 95.7787 125.484C96.057 125.011 96.0707 124.913 96.128 122.991C96.1608 121.891 96.1974 109.97 96.2093 96.5009C96.2317 71.1144 96.2974 57.151 96.4059 54.6833C96.4673 53.2881 96.4766 53.2448 96.7552 53.0483C97.2983 52.6654 122.876 39.417 126.019 37.8908C128.632 36.6216 128.621 36.6257 128.707 36.9484C128.743 37.0839 128.773 59.1691 128.774 86.0266L128.776 134.858L127.614 135.258C126.974 135.478 125.916 135.844 125.261 136.073C124.607 136.301 122.442 137.055 120.45 137.748C118.458 138.441 116.366 139.172 115.801 139.372C115.236 139.571 113.995 140.009 113.043 140.345C107.695 142.23 102.138 144.332 94.8739 147.218L91.6255 148.509H84.1293C77.006 148.509 76.6409 148.5 76.7811 148.319Z" fill="#F3F3F3"/>
<path d="M86.9649 169.6C77.2266 164.721 69.0117 160.548 68.7096 160.327C68.2279 159.975 70.169 159.127 84.4642 153.447C93.4314 149.884 101.8 146.566 103.062 146.074L105.355 145.18L105.508 153.48C105.719 164.895 105.454 178.211 105.013 178.357C104.825 178.42 96.7032 174.479 86.9649 169.6Z" fill="#F3F3F3"/>
</g>
<defs>
<clipPath id="clip0_769_1130">
<rect width="131" height="181" fill="white"/>
</clipPath>
</defs>
</svg>
