<svg width="32" height="24" viewBox="0 0 32 24" fill="none" xmlns="http://www.w3.org/2000/svg">
<path d="M12.8 16.8L21.104 12L12.8 7.20005V16.8ZM31.296 4.27205C31.504 5.02405 31.648 6.03205 31.744 7.31205C31.856 8.59205 31.904 9.69605 31.904 10.656L32 12C32 15.504 31.744 18.08 31.296 19.728C30.896 21.168 29.968 22.096 28.528 22.496C27.776 22.704 26.4 22.848 24.288 22.944C22.208 23.056 20.304 23.1041 18.544 23.1041L16 23.2C9.296 23.2 5.12 22.944 3.472 22.496C2.032 22.096 1.104 21.168 0.704 19.728C0.496 18.976 0.352 17.968 0.256 16.688C0.144 15.408 0.0959999 14.304 0.0959999 13.344L0 12C0 8.49605 0.256 5.92005 0.704 4.27205C1.104 2.83205 2.032 1.90405 3.472 1.50405C4.224 1.29605 5.6 1.15205 7.712 1.05605C9.792 0.944049 11.696 0.896049 13.456 0.896049L16 0.800049C22.704 0.800049 26.88 1.05605 28.528 1.50405C29.968 1.90405 30.896 2.83205 31.296 4.27205Z" fill="#232323"/>
</svg>
